<svg xmlns="http://www.w3.org/2000/svg" viewBox="0 0 1600 900" role="img" aria-labelledby="title desc"><title id="title">Herramientas eléctricas en un taller</title><desc id="desc">Ilustración de un banco de trabajo con taladro, esmeril y tablero eléctrico.</desc><defs><linearGradient id="bg" x1="0" y1="0" x2="1" y2="1"><stop stop-color="#17232d"/><stop offset="1" stop-color="#40515c"/></linearGradient><linearGradient id="wood" x1="0" y1="0" x2="0" y2="1"><stop stop-color="#b87536"/><stop offset="1" stop-color="#70401f"/></linearGradient></defs><rect width="1600" height="900" fill="url(#bg)"/><rect y="650" width="1600" height="250" fill="url(#wood)"/><rect x="220" y="230" width="280" height="330" rx="18" fill="#e4e7e8" stroke="#1a252d" stroke-width="14"/><rect x="270" y="285" width="180" height="70" rx="8" fill="#253944"/><circle cx="305" cy="320" r="14" fill="#e7a544"/><circle cx="360" cy="320" r="14" fill="#64b879"/><rect x="270" y="395" width="180" height="95" rx="8" fill="#cad2d5"/><path d="M720 280h155l60 85-60 85H720l-60-85z" fill="#e2a33d" stroke="#18232c" stroke-width="14"/><circle cx="790" cy="365" r="48" fill="#273843"/><path d="M875 365h170" stroke="#e2a33d" stroke-width="48" stroke-linecap="round"/><path d="M1035 365l100-75" stroke="#cbd3d6" stroke-width="24" stroke-linecap="round"/><path d="M690 515c85-110 190-110 275 0" fill="none" stroke="#17232d" stroke-width="30"/><path d="M590 595h600" stroke="#17232d" stroke-width="24" stroke-linecap="round"/><path d="M600 595v55M1175 595v55" stroke="#17232d" stroke-width="18"/><path d="M1260 200v340M1260 200h140M1400 200v340" fill="none" stroke="#d9e0e2" stroke-width="18"/><path d="M1300 260h70M1300 330h70M1300 400h70" stroke="#e7a544" stroke-width="16"/><text x="800" y="120" text-anchor="middle" fill="#fff" font-family="Arial,sans-serif" font-size="54" font-weight="700">TALLER ELÉCTRICO SEGURO</text></svg>