<svg xmlns="http://www.w3.org/2000/svg" viewBox="0 0 1600 900" role="img" aria-labelledby="title desc"><title id="title">Regulador para gas GLP</title><desc id="desc">Ilustración de un cilindro de gas con regulador, válvula y manguera.</desc><defs><linearGradient id="bg" x1="0" y1="0" x2="1" y2="1"><stop stop-color="#16222c"/><stop offset="1" stop-color="#51616b"/></linearGradient><linearGradient id="tank" x1="0" y1="0" x2="1" y2="0"><stop stop-color="#8d9ba2"/><stop offset=".5" stop-color="#e4eaed"/><stop offset="1" stop-color="#71818a"/></linearGradient></defs><rect width="1600" height="900" fill="url(#bg)"/><rect y="725" width="1600" height="175" fill="#293640"/><ellipse cx="430" cy="730" rx="260" ry="42" fill="#17232c"/><rect x="215" y="230" width="430" height="510" rx="100" fill="url(#tank)" stroke="#17232c" stroke-width="18"/><path d="M315 230v-55q0-58 115-58t115 58v55" fill="#aebbc1" stroke="#17232c" stroke-width="18"/><rect x="377" y="96" width="106" height="70" rx="16" fill="#42545d" stroke="#17232c" stroke-width="12"/><path d="M645 365h250" stroke="#e0aa53" stroke-width="56" stroke-linecap="round"/><circle cx="930" cy="365" r="120" fill="#dbe3e6" stroke="#17232c" stroke-width="18"/><circle cx="930" cy="365" r="78" fill="#fff" stroke="#74858d" stroke-width="10"/><path d="M930 365l46-42" stroke="#c43b26" stroke-width="12" stroke-linecap="round"/><circle cx="930" cy="365" r="13" fill="#17232c"/><path d="M1050 365h250q80 0 110 80" fill="none" stroke="#e0aa53" stroke-width="42" stroke-linecap="round"/><path d="M1310 510q95 70 150 0" fill="none" stroke="#e0aa53" stroke-width="42" stroke-linecap="round"/><rect x="812" y="505" width="240" height="58" rx="28" fill="#c43b26"/><text x="800" y="170" fill="#fff" font-family="Arial,sans-serif" font-size="52" font-weight="700">REGULADOR GLP</text><text x="800" y="235" fill="#f6d7a3" font-family="Arial,sans-serif" font-size="29">Presión controlada para el artefacto</text></svg>